<svg xmlns="http://www.w3.org/2000/svg" width="305.82" height="49.926" viewBox="0 0 305.82 49.926"><defs><style>.a{fill:#fff;}</style></defs><g transform="translate(-57.374 -37.314)"><g transform="translate(-1580.235)"><path class="a" d="M1647.694,46.2l-4.265,1-3.274,1.107a2.867,2.867,0,0,1-.959.178c-.1,0-1.389-.25-1.389-1.428,0-1.82,2.712-3.925,3.208-3.925.3,0,1.554.214,1.819.178l3.7-.321a10.724,10.724,0,0,0,2.48-.393c0-.25.132-1.82-.3-2-.529-.249-.959-.428-.959-1.32,0-1.106,1.885-1.927,2.216-1.927,1.157,0,2.347,0,2.347,1.784a5.513,5.513,0,0,1-.3,1.642c0,.071-.3,1-.3,1.071s.066.535.232.535l2.81.071,1.819.108,7.7.785c.4.035,2.017.143,2.348.214a.553.553,0,0,1,.43.535c0,.785-1.422,3.284-2.381,3.284a4.576,4.576,0,0,1-.761-.143l-3.339-.892-2.811-.429-.76-.107-2.58-.107c-.2,0-1.983.072-2.314.072-1.025,0-1.091,0-1.455.713-.2.393-.893,2.178-1.025,2.534l-1.058,2.534a24.731,24.731,0,0,1-2.249,3.676l-1.653,1.964c-.992,1.177-2.91,3.14-4.4,3.14-1.256,0-2.678-2-2.678-2.891,0-.606.232-.785,2.348-1.891a23.377,23.377,0,0,0,4.265-3.177,16.459,16.459,0,0,0,3.671-6.174Zm7.44,1.749.959.071,3.108-.036a3.481,3.481,0,0,1,3.571,2.641c0,.5-.165.643-.76,1.214a7.467,7.467,0,0,0-.133,1.82c0,.107.067.714.067.821v.178l.462,2.927.86,3,1.191,2.713a6.173,6.173,0,0,1,.595,1.5,2.892,2.892,0,0,1-1.157,2.248,6.635,6.635,0,0,1-.794.892,2.367,2.367,0,0,1-.827.143c-.562,0-1.389-.785-1.719-2.605l-.463-2.534-.3-3.32-.694-.142-2.91-.072c-1.885-.035-4.034.357-4.133.607a5.554,5.554,0,0,1-.066.857,16.143,16.143,0,0,1-2.414,6.245,2.235,2.235,0,0,1-1.918,1.071c-1.025,0-2.281-1.749-2.281-2.784,0-.606.132-.714,1.058-1.534a11.726,11.726,0,0,0,3.174-5.1,22.373,22.373,0,0,0,1.124-5.318c0-.535-.1-.642-1.025-1.749a4.992,4.992,0,0,1-.1-.785c0-1.856,2.414-2.748,2.414-2.748Zm3.439,7.245-3.505.035a12.4,12.4,0,0,0-2.017.036c-.232.072-.232.179-.232.535,0,.143-.2,1.071-.2,1.25.331,0,1.852-.107,1.984-.107.165,0,1.422.107,1.653.107.331,0,2.282.143,2.679.143.231,0,.628-.072.628-.25,0-.072-.132-.821-.132-1,0-.392,0-.535-.166-.678Zm-.463-2.284c.132,0,.694.107.827.107a.484.484,0,0,0,.264-.143V51.2c-.165-.106-.331-.071-.926-.106l-2.314-.072a16.054,16.054,0,0,0-2.811.214,5.764,5.764,0,0,0-.232,1.571c0,.035,0,.035.067.178Z"/><path class="a" d="M1675.142,59.406c-.033.643-.2,3.32-.265,3.891-.3,2-.529,3.568-1.752,3.568-.264,0-1.984-1.32-1.984-4.1,0-.464.066-.642.794-2.355.4-.964,1.058-6.782,1.058-11.421,0-1.249-.132-4.533-.728-5.39a2.072,2.072,0,0,1-.529-1.284,3.193,3.193,0,0,1,1.191-2.07,2.382,2.382,0,0,1,2.083-.821h2.711c.265-.036,1.389-.143,1.587-.143.7,0,2.579,1.57,2.579,2.712,0,.678-.429.786-.76.893-.265.071-.4.357-.694.928-.463.892-.695,1.32-1.852,3.247-.132.214-.893,1.285-.893,1.321,0,.214.661.821.761.964a11.691,11.691,0,0,1,1.95,5.639,6.02,6.02,0,0,1-1.785,4.318,4.115,4.115,0,0,1-1.323.5,7.515,7.515,0,0,1-1.851-.428A.3.3,0,0,0,1675.142,59.406Zm.1-10.814a10.587,10.587,0,0,0,1.72-2.712l.893-2.106a2.9,2.9,0,0,0,.3-1.035c-.463-.036-.661-.072-1.091-.072-1.389,0-1.587.143-1.852.322l-.1.214.033.714Zm-.066,8.28.066.072c2.315-.357,2.645-2.213,2.645-4.676a3.7,3.7,0,0,0-1.091-2.5c-.363,0-.859.607-1.488,1.356l-.066.179-.066,5.424Zm8.366-1.035.132-3.283V50.983l-.1-2.819a9.5,9.5,0,0,0-1.058-4.783,1.616,1.616,0,0,1-.232-.892,2.914,2.914,0,0,1,1.984-2.855,12.787,12.787,0,0,1,2.612-.357h3.638l3.174-.143c.1,0,.529-.035.628-.035,1.191,0,3.34,1.356,3.34,3.14,0,.428-.1.536-1.025,1.356a2.5,2.5,0,0,0-.4,1.036l-.628,3.5c-.43,2.463-.5,2.713-1.091,3.319-.4.393-2.612.393-3.34.393-.165,0-1.025-.071-1.223-.071l-2.414.107-1.422.214-.1.035-.166.393.033,5.568.033.678a17.384,17.384,0,0,1,2.15-.785c.595,0,.727.642.727.856,0,.785-1.289,1.856-1.851,2.249l-2.15,1.534a13.561,13.561,0,0,0-3.174,2.856c-.4.464-.893,1.035-1.257,1.035-.628,0-1.521-.821-1.521-2.855,0-1.928.6-2.392.926-2.677.133,0,.695.071.794.071.132,0,2.48-.892,2.579-.964ZM1693,44.274l.3-.036.066-.107c0-.286.133-1.785.133-1.927a.3.3,0,0,0-.1-.179l-.33-.036h-4l-2.844.215c-.2.035-.231.321-.231.535s0,1.463-.033,1.606c.694.036,3.7-.071,4.265-.071Zm-6.911,4.711,2.348.035,3.67-.25c.595-.035.727-.071.893-.178l.2-1.963-3.075-.036-3.935.179-.165.071v2Zm6.679,8.708.1.107,2.414,1.892a13.715,13.715,0,0,0,2.249,1.5l2.579,1.213c1.124.536,1.256.571,1.256.964,0,.928-2.81,2.819-3.935,2.819-.5,0-.76-.214-1.289-.678-.033,0-.728-.571-.827-.642-.033,0-.066,0-.066-.036l-2.182-2.57-1.819-2.355c-2.447-3.141-2.645-3.248-4.034-3.89-.264-.143-.5-.964-.5-1.249a1.771,1.771,0,0,1,1.488-1.607c.364,0,.661.429.959.857a7.464,7.464,0,0,0,1.686,1.749,5.958,5.958,0,0,0,1.984-1.642c.926-1.32,1.025-1.463,1.654-1.463.6,0,3.405,1.427,3.405,2.712,0,.5-.363.571-2.017.893a8.972,8.972,0,0,0-3.108,1.249Z"/><path class="a" d="M1724.744,43.417l2.844,1.749,2.182,1.142,2.877,1.071c.3.107.826.392.826.749,0,.536-2.281,2.963-3.736,2.963a2.246,2.246,0,0,1-1.323-.536l-2.116-1.713-3.6-3.6-2.777-2.641c-.265-.25-.827-.714-1.059-.714-.1,0-.132,0-.165.036l-2.116,2.142-.232.178-2.876,2.891-1.588,1.32-2.38,1.642a9,9,0,0,1-2.943,1.214c-1.058,0-2.976-1.357-2.976-2.891,0-.5.2-.536,1.885-.964a26.654,26.654,0,0,0,6.712-3.319,28.4,28.4,0,0,0,4.034-3.212,1.483,1.483,0,0,0,.331-.964,1.145,1.145,0,0,1-.595-1c0-.928,1.62-1.642,2.083-1.642a2.532,2.532,0,0,1,2.182,1.392,3.516,3.516,0,0,0,1.587,2.5Zm-4.265,18.1,1.818-.214.1-.107c-.2-.286-1.257-1.5-1.456-1.785a3.46,3.46,0,0,1-.529-1.32c0-.429.463-1.107,1.72-1.107,1.157,0,2.116.429,2.116,1.143a5.712,5.712,0,0,0,.033.785,10.369,10.369,0,0,0,3.34,3.462l2.645,1.927c.463.357.5.428.5.714,0,1.035-1.091,2.1-2.844,2.1-.727,0-1.984-1.284-2.942-2.569-.6-.821-.662-.928-.86-.892l-4.431.535-2.778.428-2.579.464-2.744.642c-.265.072-1.488.286-1.719.357a7.085,7.085,0,0,0-2.282,1.071.7.7,0,0,1-.331.107c-.5,0-1.058-.607-1.058-1.606,0-1.071,1.091-3.176,2.381-3.248l3.207-.214a1.776,1.776,0,0,0,.43-.5l.727-2.319c.034-.143.53-2,.53-2.106,0-.214-.1-.964-.331-.928l-3.439.785-.331.072-2.645.963c-.3.107-1.488-.035-1.488-1.5a3.387,3.387,0,0,1,2.943-2.962,4.977,4.977,0,0,1,.628.143l4.233-.679,3.372-.285,2.282-.036,2.91.179,3.108.285.364.072,2.81.356h.232l2.48.322c.4.035,1.62.321,1.62.892,0,.642-1.091,2.641-2.414,2.641a6.432,6.432,0,0,1-1.29-.25c-.2-.035-1.058-.285-1.256-.357l-3.274-.678-4.066-.464a19.556,19.556,0,0,0-2.084-.107c-.463,0-.562.179-1.322,1.606-.3.571-1.323,3.212-1.554,3.748a3.119,3.119,0,0,0-.331.571.637.637,0,0,0,.066.178Zm-5.622-10.457c-.231.036-1.256.428-1.455.428-.066,0-1.025,0-1.025-1.249,0-.536.133-.714.728-1.606.562-.857,1.323-.857,2.248-.857,1.687,0,4.266.036,5.886.072,2.877.035,3.241.035,3.241,1.249,0,1.891-2.249,1.963-2.646,1.963-.661,0-3.438-.286-4-.25Z"/><path class="a" d="M1744.289,47.95a22.431,22.431,0,0,0-3.009.214c-.4.035-2.215.5-2.579.5-.43,0-.794-.536-.794-1.071a3.843,3.843,0,0,1,1.555-2.606,1.676,1.676,0,0,1,1.157-.249l2.976.071c.364,0,.4-.036.5-.178-.232-2-.265-2.213-.463-2.463-.661-.75-.728-.821-.728-1.142a3.467,3.467,0,0,1,2.646-2.641c1.818,0,1.653,1.749,1.62,2.177L1746.8,44.6a6.678,6.678,0,0,0,1.521.107c.066,0,1.058-.143,1.257-.143,1.124,0,2.91,1.606,2.91,2.57,0,.714-.562.714-.992.714a1.549,1.549,0,0,0-1.158.571l-2.777,2.962c-.2.214-.4.393-.4.571,0,.393,2.976,1.892,3.439,2.355a1.188,1.188,0,0,1,.463,1,1.412,1.412,0,0,1-1.323,1.392,4.1,4.1,0,0,1-1.752-.75,8.435,8.435,0,0,0-1.72-.963c-.231,0-.3,1.5-.3,1.606l-.067,4.39v3.854c0,2.249-.429,2.927-1.355,2.927-1.587,0-2.249-3.212-2.249-3.748,0-.571.033-.642.695-2.105a7.89,7.89,0,0,0,.363-2.82,8.645,8.645,0,0,0-.264-2.677h-.1c-.43.393-2.216,2.142-2.613,2.427a3.318,3.318,0,0,1-1.421.607c-1.091,0-2.48-1.963-2.48-2.713a1.2,1.2,0,0,1,.5-1.034c.165-.072.859-.108.992-.179,2.182-1.142,4-1.856,5.522-3.569.1-.071,3.472-3.462,3.472-3.926,0-.071-.067-.107-.133-.107Zm11.639,11.813-.1-7.78a1.5,1.5,0,0,0-.066-.536l-2.811.286c-.3.036-1.554.428-1.818.428-.5,0-.827-.464-.827-1.07,0-1.214,1.025-2.749,2.15-2.749l3.207-.035.264-.036.033-.143-.066-3.141c-.033-.249-.1-1.641-.5-1.963-.793-.642-.892-.713-.892-1.32a3.255,3.255,0,0,1,2.909-2.855A1.662,1.662,0,0,1,1759,40.134l-.4,7.245c-.033.464-.066.856.264.856l3.208-.142c1.223-.072,2.546.178,2.546,1.641,0,1.035-.86,1.749-2.183,1.749h-3.7l-.132.464-.066,5.318c0,.428-.133,2.213-.133,2.569,0,.536,0,.536.662.607l2.942.357,2.282.214c.43.036.926.072,1.356.072.165,0,.959-.072.992-.072a.538.538,0,0,1,.562.536,9.385,9.385,0,0,1-1.158,2.284,2.369,2.369,0,0,1-2.083,1.035,3.656,3.656,0,0,1-1.322-.286c-.033-.035-.265-.142-.3-.178l-2.612-.535a20.333,20.333,0,0,0-3.571-.429,23.472,23.472,0,0,0-6.183,1.035,17.842,17.842,0,0,1-2.183.786c-.463,0-1.19-.786-1.19-1.642a4.311,4.311,0,0,1,1.355-2.356,7.3,7.3,0,0,1,1.323-.606c.232,0,1.224.214,1.422.214.265,0,1.951-.286,2.91-.464.066,0,1.885-.107,2.248-.143Z"/><path class="a" d="M1789.329,44.131a9.471,9.471,0,0,0-.066.963.422.422,0,0,0,.1.286c.4.036,2.083,0,2.414.036a1.284,1.284,0,0,1,1.157,1.213c0,1.107-.992,1.321-2.711,1.678.1.749,2.314,3.283,2.314,3.961,0,.321-.43,1.142-1.058,1.142a1.565,1.565,0,0,1-1.124-.821c-.694-.963-.794-1.07-1.091-1.249l-.033.643-.066,4.211.033,5.175c0,.357.1,2,.1,2.32,0,.393,0,3.5-1.819,3.5-1.355,0-1.752-3.07-1.752-3.533,0-.286.5-1.607.529-1.892l.4-3.248.033-.678.165-3.141c-.2-.071-.232-.036-.43.429l-1.091,2.676a15.763,15.763,0,0,1-1.885,3.177,1.76,1.76,0,0,1-1.455.571c-1.157,0-1.554-2.641-1.554-3.248,0-.928.331-1.071.794-1.285,2.182-.928,4.629-6.353,4.629-8.209,0-.142-.132-.178-.231-.178-.265,0-1.389.25-1.621.285-.264.036-1.388.357-1.62.357a1.192,1.192,0,0,1-1.256-1.142,2.583,2.583,0,0,1,2.149-2.569,31.03,31.03,0,0,0,3.571-.25,18.078,18.078,0,0,0-.4-3.355,8.331,8.331,0,0,1-.463-1.142,3.039,3.039,0,0,1,2.679-2.57c.892,0,1.091,1.82,1.025,2.534Zm9.887,2.57h3.637c1.62,0,2.281.035,3.339.927a3.169,3.169,0,0,1,1.29,2,1.6,1.6,0,0,1-1.356,1.356l-.562,1.035-1.752,3.783-.529,1.178a3.743,3.743,0,0,0,1.124,1.285l2.348,1.963.529.357,2.843,1.571c.331.178.827.5.827.785,0,.071-1.819,2.962-3.6,2.962a4.4,4.4,0,0,1-2.447-1.463l-1.653-1.606c-.166-.179-1.621-2-1.918-2.392-.265.286-.992,1.678-1.191,1.928l-1.223,1.713c-.529.749-2.579,2.641-3.439,2.641a2.892,2.892,0,0,1-2.116-.5c-.165-.107-.827-.571-.959-.678-.5-.428-.893-.785-.893-1.178a.9.9,0,0,1,.265-.5l2.281-1a14.077,14.077,0,0,0,5.886-4.889,13.621,13.621,0,0,1-.794-1.535l-1.058-2.534-.595-1.535c-.1.214-.661,1.963-.992,2.927-.661,2-3.538,5.675-4.5,5.675a2.939,2.939,0,0,1-1.785-2.356c0-.642.132-.749,1.422-1.963a21.064,21.064,0,0,0,3.141-4.675,15.363,15.363,0,0,0,1.719-6.532c0-.428-.033-1.32-.5-1.32-.3,0-1.686.392-1.984.392a1.353,1.353,0,0,1-1.322-1.463,2.464,2.464,0,0,1,1.322-2.355,15.72,15.72,0,0,1,1.786-.179l3.207-.107,4.1.036,2.745.142,2.943.143a7.909,7.909,0,0,1,.793.179c.166.143.166.5.166.606,0,1.321-.4,1.571-.992,1.964-.992.677-1.025.677-1.753.677a8.2,8.2,0,0,1-1.157-.071,6.031,6.031,0,0,0-.7-.143l-3.174-.428a9.832,9.832,0,0,0-2.48.214,14.716,14.716,0,0,0-.463,2.927Zm2.744,8.03,1.224-2.641c.033-.072.76-2.106.76-2.249a1.7,1.7,0,0,0-.1-.392l-1.587-.072-3.34.25a13.645,13.645,0,0,0,2.811,5.5Z"/><path class="a" d="M1837.112,43.274l-3.141-.285-.264-.036-3.836-.178-2.778.107-.5.071-3.637.286c-.264.035-1.422.285-1.653.356-.694.143-.761.179-1.025.429l-.132,3.6v4.141l-.034,1.106-.231,3-.43,3.176-.529,2.891c-.165.857-1.356,4.462-2.48,4.462-1.289,0-1.851-2.177-1.851-3.6,0-.5.1-.678,1.025-2.391.826-1.5,1.091-2.891,1.653-5.6a33.374,33.374,0,0,0,.6-7.709,12.307,12.307,0,0,0-.463-2.784c-.066-.285-.595-1.463-.595-1.713,0-1.677,1.951-2.677,2.017-2.677.43,0,2.348-.178,2.711-.178,4.067-.036,4.5-.036,7.209-.214.6-.036,1.719,0,2.347,0l2.546.071.629.072,2.777.071c.165,0,.959-.107,1.091-.107.5,0,3.34,1.178,3.34,2.927,0,.249-.066.321-.5.963a8.487,8.487,0,0,0-.793,3.105v3.748l.429,4.568.794,3.676.165.607,1.025,2.891a3.619,3.619,0,0,1,.265,1.249c0,1.642-1.753,3.355-2.348,3.355-.893,0-1.521-1.892-1.587-2.213l-.5-3v-.821c0-.107-.132-.678-.132-.821-.033-.214-.066-1.178-.066-1.392l-.529-6.46-.133-3.569.033-1.178-.2-3.747Zm-6.348,2.32c.165-.571.661-1.927,1.322-1.927.926,0,2.745,1.213,2.745,2.106,0,.249-.1.285-.926.642a7.065,7.065,0,0,0-1.951,1.856c0,.178.2.214.265.214a19.683,19.683,0,0,1,3.174.179c.628.071,1.323.142,1.323.856,0,.785-.5,1.285-1.191,1.963-.33.357-1.19.286-1.455.286l-3.6-.179c-.231,0-.33,0-.463.321-.1.357-.3,2-.3,2.106l-.033,3.569.033.071c.33,0,1.752.072,2.05.072a6.775,6.775,0,0,0,.826-.179,17.192,17.192,0,0,1-.231-2.569c0-1.357.694-1.749.992-1.749.5,0,1.785.5,1.785,1.392,0,.214-.429,1-.429,1.177s.132,1.036.132,1.214a1.6,1.6,0,0,0,.033.464l.826,3.212c.067.286-.661,1.107-1.487,1.107a8.428,8.428,0,0,1-1.522-.429,3.946,3.946,0,0,0-1.091-.178c-.4,0-1.884,0-2.149.036l-3.836.285c-.429.036-2.215.714-2.612.714s-.793-.607-.793-1.392a3.949,3.949,0,0,1,.33-1.356,4.421,4.421,0,0,0,.232-1.464,4.512,4.512,0,0,0-.2-1.32c-.562-.5-.595-.536-.595-.928,0-1.5,2.083-2.249,2.216-2.249.363,0,1.355.607,1.355,2.178,0,.285-.165,1.606-.132,1.855l2.249.107.1-.107.033-.642.066-3c0-.036-.132-1.5-.132-1.642-.1-.464-.3-.571-.827-.571a14.144,14.144,0,0,0-3.505.357c-.264.036-1.422.428-1.62.428-.364,0-.761-.535-.761-1.391A4,4,0,0,1,1822.1,48.7a8.531,8.531,0,0,1,1.918-.143c.331,0,1.455,0,1.455-.178,0-.428-1.256-1.142-2.546-1.856-.2-.107-.264-.535-.264-.785,0-1.035,1.388-1.785,2.017-1.785.925,0,1.289.536,2.446,2.463.166.286.662,1.82.761,1.892.132.107.3.107.6.107.628,0,1.091,0,1.455-.036Z"/><path class="a" d="M1860.493,54.838V48.021c0-.107-.132-1.178-.165-1.392a5.813,5.813,0,0,0-.2-1.427l-3.339.142c-.6.036-2.546.215-3.108.322-.232.035-1.257.356-1.488.356-.6,0-.86-.82-.86-1.463,0-1.142.959-3.069,2.777-3.069.166,0,1.521.357,1.786.357l3.042-.036,5.125-.143,5.258-.035c.363,0,2.48,0,2.48,1.57,0,.749-.86,2-1.852,1.963l-3.538-.143a11.026,11.026,0,0,0-2.678.107,6.643,6.643,0,0,0-.4,2.391l-.2,10.922c0,.571.232.571.7.571.132,0,.3.035.4.035l2.744.215,2.976.356,3.8.429c.265.035,1.323.142,1.984.142.133,0,.827-.071.993-.071a.436.436,0,0,1,.462.464c0,1.321-2.81,3.533-3.637,3.533-.066,0-1.521-.214-2.149-.357l-2.48-.606-.165-.071-2.745-.465-3.9-.249h-3.7c-.364,0-3.439.606-4.067.714-.165.035-2.149.571-2.248.606-.067.036-.364.179-.43.214l-2.943,1a1.812,1.812,0,0,1-.6.071,1.381,1.381,0,0,1-1.587-1.392c0-1.463,1.587-3.676,3.076-3.676.066,0,.859.071,1.024.071.629,0,7.9-.963,8.9-.963a2.207,2.207,0,0,0,.86-.107Z"/><path class="a" d="M1888.073,51.447l.066,7.709.166,3c0,.249.1,1.284.1,1.5a4.838,4.838,0,0,1-.727,2.819c-.5.749-.695,1-1.092,1-1.157,0-2.017-2.5-2.017-3.818,0-.072.6-2.642.662-3.141l.3-2.748.2-2.713a16.319,16.319,0,0,0-.43-4,16.934,16.934,0,0,0-1.62,1.891,1.58,1.58,0,0,1-1.224.643c-1.19,0-2.579-1.82-2.579-2.784,0-.678.132-.75,1.223-1.356a13.4,13.4,0,0,0,4.134-3.962c1.785-2.284,1.785-2.926,1.785-3.283,0-.25-.033-.286-.43-.643a1.2,1.2,0,0,1-.363-.964c0-1.284,1.289-1.427,1.653-1.427,1.455,0,2.083,2.106,2.083,2.784,0,1.82-1.521,4.14-1.852,4.675a1.3,1.3,0,0,0-.231,1Zm8.3-7.744.694-.072,3.241-.285,1.851-.072,3.175.215.2.035,2.281.286c.265.035,1.456.107,1.687.142.264.072.529.286.529.536,0,.392-1.488,3.033-2.612,3.033-.033,0-1.29-.178-1.389-.178a11.515,11.515,0,0,0-1.488-.428l-2.381-.072a16.879,16.879,0,0,0-2.347.072c-.265.142-.265,1.463-.265,1.677,0,.143-.033.821-.033.964,0,.178.066.285.165.285l3.737-.178c2.281-.107,3.075-.107,3.075,1,0,.357-.463,2-1.786,2h-.628l-2.248.107a13.417,13.417,0,0,0-1.951.107c-.364.071-.4.214-.4.393,0,.035.1,1.784.1,1.962.331.072,1.786.25,2.083.322l3.009.785,4.1,1.285a.605.605,0,0,1,.43.571c0,.214-.1.25-.76.963-1.687,1.714-1.786,1.749-2.249,1.749a3.959,3.959,0,0,1-2.347-.821c-2.513-1.463-3.7-1.5-3.77-1.5a2.976,2.976,0,0,0-.4.072l.033,4.747a14.17,14.17,0,0,1-.1,2.712c-.2,1-.925,1.749-1.422,1.749-1.62,0-1.983-3.141-1.983-3.712,0-.535.562-3.069.562-3.355l.165-3.64.033-4.247.066-1.107-.066-3.212c0-.393-.066-1.463-.5-1.463a10.131,10.131,0,0,0-1.686.357l-1.389,2.427c-.331.571-1.389,1.891-2.182,1.891-.5,0-2.084-1.07-2.084-3.5,0-.357.1-.429,1.026-1,.562-.357,4.53-4.6,4.331-6.781a4.461,4.461,0,0,0-.3-.714c-.429-.357-.661-.5-.661-.963a1.825,1.825,0,0,1,.066-.464c.43-.571.629-.785,1.191-.785,1.388,0,2.314,1.677,2.314,2.855a13.728,13.728,0,0,1-.793,3.176Z"/><path class="a" d="M1914.562,61.369a11.3,11.3,0,0,0,1.885-3.712,45.564,45.564,0,0,0,.529-6.388c0-.143-.066-1.356-.33-1.535a1.681,1.681,0,0,1-.926-1.427,3.062,3.062,0,0,1,1.289-2.106,17.906,17.906,0,0,1,3.67-.357c.5,0,2.778.143,3.241.143.43,0,2.645-.143,2.744-.143.563,0,.728.071,1.092.678a3.63,3.63,0,0,1,.562,1.677c0,.465-.166.607-.662,1.107-.529.5-1.058,3.962-1.256,4.6a2.049,2.049,0,0,1-1.587,1.463,1.632,1.632,0,0,1-.529-.143,2.563,2.563,0,0,0-1.224-.285c-1.884,0-3.934,0-4.034,1.463-.364,5.068-.827,6.318-2.116,8.994-.264.536-1.025,1.392-1.653,1.392-.959,0-2.05-1.534-2.05-3.034C1913.207,62.9,1913.339,62.761,1914.562,61.369Zm5.622-18.273a11.668,11.668,0,0,0-2.017.25c-.2.071-1.621.357-1.687.357-.992,0-1.422-.25-1.422-1,0-.928.794-2.962,2.414-2.962.331,0,1.786.036,2.083,0,.463,0,2.513-.071,2.943-.071.5,0,2.811.071,3.274.035,1.587.393,1.851.464,1.851,1.285,0,.393-.066.5-.859,1.5-.166.214-.265.214-1.191.286Zm3.207,8.566c1.389-.072,1.389-.179,1.389-.857V49.342c.033-.357.033-.5-.893-.536l-2.745-.107a6.286,6.286,0,0,0-1.223.214c-.4.072-.595.143-.595.571,0,.179.1,1,.1,1.178a9.376,9.376,0,0,0,0,.964c.1.25.265.214,1.753.143Zm7.9-6.817.166,3.248-.033.392c.4.071.463.036,1.091-.143a5.423,5.423,0,0,1,.694-.143l2.811-.071h.992l2.877.321c.264,0,1.322-.035,1.521-.035.264.035,1.389-.072,1.62-.072.264,0,.4.214.4.5a6.361,6.361,0,0,1-1.157,2.534c-.463.5-.53.535-1.422.464L1938.5,51.7c-.132,0-.893-.143-1.058-.143-.463,0-.595.108-.595.429,0,.357.3,1.963.3,2.284a1.733,1.733,0,0,0,.066.5l.6,2.391a27.826,27.826,0,0,0,1.322,3.819l1.29,2.391a1.737,1.737,0,0,1,.165.892,2.8,2.8,0,0,1-2.513,2.784c-.628,0-.959-.678-1.356-1.82a31.013,31.013,0,0,1-.859-3.462l-.43-2.427-.695-4.069-.462-3.569c-.034-.178-.067-.321-.232-.321a7.916,7.916,0,0,0-2.844.642l-.132,1.5-.5,2.963-.132.749-.86,2.677c-1.62,5-3.935,6-4.563,6a3.188,3.188,0,0,1-2.348-2.463c0-.392.133-.5.728-1.106a17.932,17.932,0,0,0,4.4-5.96,22.78,22.78,0,0,0,1.421-8.138,16.037,16.037,0,0,0-.33-2.962c-.728-.821-.827-.928-.827-1.356a3.15,3.15,0,0,1,2.315-2.713c.2,0,.959.5,1.157.5.3,0,3.141-1.107,3.307-1.178a15.469,15.469,0,0,1,3.141-1.463c1.62,0,3.406,1.285,3.406,2,0,.392-.265.5-.662.677a33.146,33.146,0,0,1-7.406,2.071c-.3.071-1.72.25-1.984.356Z"/></g><g transform="translate(-1580.235)"><path class="a" d="M1707,78.245h1.391v8.839H1707Z"/><path class="a" d="M1713.7,79.421h-2.591V78.245h6.585v1.176h-2.6v7.663H1713.7Z"/><path class="a" d="M1721.648,78.245h1.607l2.927,8.839h-1.475l-.744-2.518h-3.07l-.756,2.518h-1.415Zm-.432,5.23h2.411l-.348-1.188c-.3-.959-.564-1.943-.827-2.938h-.06c-.252,1.007-.528,1.979-.816,2.938Z"/><path class="a" d="M1727.938,82.635c0-2.843,1.571-4.546,3.837-4.546s3.851,1.7,3.851,4.546-1.584,4.6-3.851,4.6S1727.938,85.478,1727.938,82.635Zm6.26,0c0-2.075-.959-3.334-2.423-3.334s-2.41,1.259-2.41,3.334.947,3.394,2.41,3.394S1734.2,84.7,1734.2,82.635Z"/><path class="a" d="M1738.666,78.245h1.391v4.186h.035l3.359-4.186H1745l-2.735,3.419,3.191,5.42h-1.548l-2.494-4.329-1.355,1.667v2.662h-1.391Z"/><path class="a" d="M1749.452,78.245h1.608l2.926,8.839h-1.475l-.744-2.518h-3.07l-.756,2.518h-1.415Zm-.431,5.23h2.41l-.347-1.188c-.3-.959-.564-1.943-.828-2.938h-.06c-.252,1.007-.528,1.979-.816,2.938Z"/><path class="a" d="M1760.253,78.245h1.595l1.619,4.474c.2.588.384,1.187.588,1.775h.06c.2-.588.372-1.187.576-1.775l1.595-4.474h1.607v8.839H1766.6V82.719c0-.792.108-1.931.18-2.735h-.048l-.708,2.039-1.535,4.21h-.863l-1.548-4.21-.7-2.039h-.047c.06.8.168,1.943.168,2.735v4.365h-1.248Z"/><path class="a" d="M1773.176,78.245h1.607l2.926,8.839h-1.475l-.743-2.518h-3.071l-.755,2.518h-1.415Zm-.432,5.23h2.411l-.348-1.188c-.3-.959-.564-1.943-.827-2.938h-.061c-.252,1.007-.527,1.979-.815,2.938Z"/><path class="a" d="M1780.077,78.245h1.427l2.927,5.193.923,1.872h.06c-.072-.912-.18-1.979-.18-2.939V78.245h1.319v8.839h-1.427l-2.926-5.205-.924-1.847h-.06c.072.912.18,1.931.18,2.891v4.161h-1.319Z"/><path class="a" d="M1790.037,83.294V78.245h1.391v5.146c0,1.99.791,2.638,1.9,2.638s1.931-.648,1.931-2.638V78.245h1.343v5.049c0,2.879-1.319,3.946-3.274,3.946S1790.037,86.173,1790.037,83.294Z"/><path class="a" d="M1800.081,78.245h5.229v1.176h-3.838v2.7h3.262v1.164h-3.262v3.8h-1.391Z"/><path class="a" d="M1809.32,78.245h1.606l2.927,8.839h-1.476l-.743-2.518h-3.07l-.756,2.518h-1.415Zm-.433,5.23h2.411l-.347-1.188c-.3-.959-.564-1.943-.828-2.938h-.06c-.252,1.007-.527,1.979-.815,2.938Z"/><path class="a" d="M1815.609,82.695c0-2.879,1.751-4.606,3.981-4.606a3.4,3.4,0,0,1,2.507,1.116l-.756.887a2.344,2.344,0,0,0-1.726-.791c-1.524,0-2.579,1.271-2.579,3.346,0,2.1.984,3.382,2.543,3.382a2.557,2.557,0,0,0,1.955-.935l.743.875a3.483,3.483,0,0,1-2.746,1.271C1817.312,87.24,1815.609,85.585,1815.609,82.695Z"/><path class="a" d="M1826.624,79.421h-2.59V78.245h6.584v1.176h-2.6v7.663h-1.391Z"/><path class="a" d="M1833.3,83.294V78.245h1.392v5.146c0,1.99.791,2.638,1.9,2.638s1.931-.648,1.931-2.638V78.245h1.343v5.049c0,2.879-1.319,3.946-3.274,3.946S1833.3,86.173,1833.3,83.294Z"/><path class="a" d="M1843.34,78.245h2.891c1.823,0,3.19.66,3.19,2.567a2.456,2.456,0,0,1-1.846,2.53l2.158,3.742h-1.571l-2-3.562h-1.427v3.562h-1.392Zm2.723,4.162c1.283,0,1.979-.528,1.979-1.6s-.7-1.439-1.979-1.439h-1.331v3.034Z"/><path class="a" d="M1852.412,78.245h1.391v8.839h-1.391Z"/><path class="a" d="M1857.32,78.245h1.428l2.925,5.193.924,1.872h.06c-.072-.912-.18-1.979-.18-2.939V78.245h1.319v8.839h-1.426l-2.927-5.205-.924-1.847h-.06c.073.912.18,1.931.18,2.891v4.161h-1.319Z"/><path class="a" d="M1866.848,82.695c0-2.879,1.776-4.606,4.113-4.606a3.521,3.521,0,0,1,2.627,1.116l-.743.887a2.433,2.433,0,0,0-1.835-.791c-1.643,0-2.734,1.271-2.734,3.346,0,2.1.971,3.382,2.794,3.382a2.188,2.188,0,0,0,1.391-.432V83.522h-1.751V82.383h3.01v3.826a3.968,3.968,0,0,1-2.794,1.031C1868.576,87.24,1866.848,85.585,1866.848,82.695Z"/></g></g></svg>