<svg xmlns="http://www.w3.org/2000/svg" width="305.82" height="49.925" viewBox="0 0 305.82 49.925"><defs><style>.a{fill:#231815;}</style></defs><g transform="translate(-58.684 -38.255)"><g transform="translate(-1670.816 -5610.326)"><path class="a" d="M1739.585,5657.467l-4.265,1-3.274,1.106a2.869,2.869,0,0,1-.959.178c-.1,0-1.388-.249-1.388-1.427,0-1.82,2.711-3.926,3.207-3.926.3,0,1.554.214,1.819.179l3.7-.322a10.687,10.687,0,0,0,2.48-.392c0-.25.132-1.821-.3-2-.529-.25-.959-.428-.959-1.321,0-1.106,1.885-1.927,2.216-1.927,1.157,0,2.347,0,2.347,1.785a5.514,5.514,0,0,1-.3,1.641c0,.072-.3,1-.3,1.072s.066.535.232.535l2.81.071,1.819.107,7.7.785c.4.036,2.017.143,2.348.215a.553.553,0,0,1,.43.535c0,.785-1.422,3.283-2.381,3.283a4.467,4.467,0,0,1-.76-.143l-3.34-.892-2.811-.428-.76-.107-2.579-.108c-.2,0-1.984.073-2.315.073-1.025,0-1.091,0-1.455.712-.2.393-.893,2.178-1.025,2.536l-1.058,2.533a24.9,24.9,0,0,1-2.248,3.676l-1.654,1.963c-.992,1.178-2.909,3.141-4.4,3.141-1.256,0-2.678-2-2.678-2.892,0-.606.232-.785,2.348-1.89a23.391,23.391,0,0,0,4.265-3.177,16.444,16.444,0,0,0,3.671-6.175Zm7.44,1.749.959.072,3.108-.036a3.479,3.479,0,0,1,3.571,2.641c0,.5-.165.643-.76,1.213a7.528,7.528,0,0,0-.132,1.82c0,.108.066.715.066.822v.178l.463,2.927.859,3,1.191,2.713a6.188,6.188,0,0,1,.595,1.5,2.891,2.891,0,0,1-1.157,2.249,6.7,6.7,0,0,1-.794.892,2.368,2.368,0,0,1-.827.143c-.562,0-1.388-.785-1.719-2.6l-.463-2.534-.3-3.32-.694-.142-2.91-.073c-1.884-.035-4.034.358-4.133.608a5.54,5.54,0,0,1-.066.856,16.131,16.131,0,0,1-2.414,6.246,2.234,2.234,0,0,1-1.918,1.071c-1.025,0-2.281-1.749-2.281-2.785,0-.606.132-.712,1.058-1.534a11.718,11.718,0,0,0,3.174-5.1,22.378,22.378,0,0,0,1.124-5.319c0-.535-.1-.641-1.025-1.749a4.99,4.99,0,0,1-.1-.785c0-1.855,2.414-2.748,2.414-2.748Zm3.439,7.245-3.505.036a12.347,12.347,0,0,0-2.017.036c-.232.071-.232.178-.232.535,0,.143-.2,1.071-.2,1.249.331,0,1.852-.107,1.984-.107.165,0,1.422.107,1.653.107.331,0,2.282.143,2.679.143.231,0,.628-.071.628-.25,0-.071-.132-.821-.132-1,0-.392,0-.536-.166-.678Zm-.463-2.284c.132,0,.694.108.827.108a.487.487,0,0,0,.264-.144v-1.677c-.165-.107-.331-.071-.926-.107l-2.314-.071a16.025,16.025,0,0,0-2.811.213,5.776,5.776,0,0,0-.231,1.572c0,.035,0,.035.066.178Z"/><path class="a" d="M1767.033,5670.672c-.033.643-.2,3.321-.264,3.891-.3,2-.529,3.569-1.753,3.569-.264,0-1.984-1.321-1.984-4.1,0-.464.066-.643.794-2.356.4-.964,1.058-6.781,1.058-11.421,0-1.249-.132-4.532-.727-5.389a2.068,2.068,0,0,1-.53-1.285,3.2,3.2,0,0,1,1.191-2.07,2.386,2.386,0,0,1,2.083-.821h2.711c.265-.035,1.389-.143,1.587-.143.7,0,2.58,1.571,2.58,2.713,0,.678-.43.785-.761.892-.265.071-.4.357-.694.929-.463.891-.695,1.32-1.852,3.247-.132.214-.893,1.285-.893,1.321,0,.214.661.82.761.963a11.694,11.694,0,0,1,1.951,5.64,6.019,6.019,0,0,1-1.786,4.318,4.133,4.133,0,0,1-1.323.5,7.487,7.487,0,0,1-1.851-.428A.307.307,0,0,0,1767.033,5670.672Zm.1-10.813a10.539,10.539,0,0,0,1.72-2.713l.893-2.1a2.905,2.905,0,0,0,.3-1.036c-.463-.036-.661-.071-1.091-.071-1.389,0-1.587.143-1.852.321l-.1.214.033.714Zm-.066,8.28.066.071c2.315-.357,2.646-2.212,2.646-4.675a3.705,3.705,0,0,0-1.091-2.5c-.364,0-.86.606-1.488,1.356l-.067.178-.066,5.426Zm8.366-1.035.132-3.283v-1.571l-.1-2.82a9.49,9.49,0,0,0-1.058-4.782,1.619,1.619,0,0,1-.232-.893,2.913,2.913,0,0,1,1.984-2.854,12.806,12.806,0,0,1,2.613-.358h3.637l3.174-.142c.1,0,.529-.035.628-.035,1.191,0,3.34,1.355,3.34,3.14,0,.428-.1.535-1.025,1.356a2.5,2.5,0,0,0-.4,1.035l-.628,3.5c-.43,2.463-.5,2.712-1.091,3.318-.4.393-2.612.393-3.34.393-.165,0-1.025-.07-1.223-.07l-2.414.106-1.422.214-.1.036-.165.393.033,5.567.033.679a17.165,17.165,0,0,1,2.149-.785c.595,0,.727.641.727.856,0,.785-1.289,1.856-1.851,2.248l-2.15,1.535a13.541,13.541,0,0,0-3.174,2.856c-.4.464-.893,1.035-1.256,1.035-.629,0-1.521-.821-1.521-2.856,0-1.927.595-2.391.925-2.677.133,0,.7.072.794.072.132,0,2.48-.893,2.579-.964Zm9.457-11.563.3-.037.066-.107c0-.285.133-1.784.133-1.927a.311.311,0,0,0-.1-.179l-.33-.035h-4l-2.844.214c-.2.036-.231.321-.231.535s0,1.464-.033,1.607c.694.035,3.7-.071,4.265-.071Zm-6.911,4.71,2.348.037,3.67-.25c.595-.037.727-.073.893-.179l.2-1.963-3.075-.036-3.935.179-.165.071v2Zm6.679,8.708.1.108,2.414,1.891a13.751,13.751,0,0,0,2.249,1.5l2.579,1.212c1.124.537,1.256.572,1.256.964,0,.929-2.81,2.82-3.934,2.82-.5,0-.761-.214-1.29-.678-.033,0-.727-.571-.827-.643-.033,0-.066,0-.066-.035l-2.182-2.57-1.819-2.356c-2.447-3.14-2.645-3.248-4.034-3.89-.264-.143-.5-.963-.5-1.248a1.771,1.771,0,0,1,1.488-1.607c.364,0,.661.429.959.857a7.454,7.454,0,0,0,1.687,1.749,5.97,5.97,0,0,0,1.983-1.642c.926-1.32,1.025-1.464,1.654-1.464.6,0,3.405,1.428,3.405,2.713,0,.5-.363.571-2.017.892a8.937,8.937,0,0,0-3.108,1.25Z"/><path class="a" d="M1816.635,5654.684l2.844,1.748,2.182,1.143,2.877,1.07c.3.107.827.393.827.75,0,.535-2.282,2.962-3.737,2.962a2.242,2.242,0,0,1-1.323-.535l-2.116-1.713-3.6-3.6-2.777-2.641c-.265-.25-.827-.714-1.058-.714-.1,0-.133,0-.166.035l-2.116,2.143-.232.177-2.876,2.891-1.588,1.321-2.38,1.642a9.01,9.01,0,0,1-2.943,1.213c-1.058,0-2.976-1.356-2.976-2.891,0-.5.2-.535,1.885-.964a26.54,26.54,0,0,0,6.712-3.319,28.346,28.346,0,0,0,4.034-3.212,1.481,1.481,0,0,0,.331-.964,1.145,1.145,0,0,1-.6-1c0-.928,1.62-1.641,2.083-1.641a2.53,2.53,0,0,1,2.182,1.392,3.516,3.516,0,0,0,1.587,2.5Zm-4.265,18.095,1.818-.214.1-.107c-.2-.286-1.257-1.5-1.455-1.786a3.433,3.433,0,0,1-.53-1.32c0-.428.463-1.1,1.72-1.1,1.157,0,2.116.427,2.116,1.141a5.7,5.7,0,0,0,.033.785,10.376,10.376,0,0,0,3.34,3.462l2.645,1.928c.463.356.5.428.5.713,0,1.035-1.091,2.106-2.843,2.106-.728,0-1.985-1.285-2.943-2.57-.595-.82-.662-.928-.86-.892l-4.431.536-2.777.427-2.579.465-2.745.642c-.265.071-1.488.286-1.719.357a7.108,7.108,0,0,0-2.282,1.07.7.7,0,0,1-.331.108c-.5,0-1.058-.607-1.058-1.607,0-1.07,1.092-3.175,2.381-3.248l3.207-.213a1.786,1.786,0,0,0,.43-.5l.728-2.321c.033-.142.529-2,.529-2.1,0-.215-.1-.964-.331-.928l-3.439.785-.33.071-2.646.964c-.3.107-1.488-.036-1.488-1.5a3.389,3.389,0,0,1,2.943-2.962,5.183,5.183,0,0,1,.629.143l4.232-.678,3.373-.286,2.281-.035,2.91.179,3.108.285.364.071,2.81.358h.232l2.48.32c.4.036,1.62.322,1.62.892,0,.643-1.091,2.642-2.414,2.642a6.505,6.505,0,0,1-1.289-.25c-.2-.036-1.059-.286-1.257-.356l-3.273-.679-4.067-.464a19.581,19.581,0,0,0-2.084-.107c-.463,0-.562.178-1.322,1.606-.3.571-1.323,3.212-1.554,3.747a3.146,3.146,0,0,0-.331.571.622.622,0,0,0,.066.179Zm-5.621-10.458c-.232.036-1.257.428-1.456.428-.065,0-1.024,0-1.024-1.249,0-.535.132-.713.727-1.6.562-.857,1.323-.857,2.248-.857,1.687,0,4.266.036,5.886.072,2.877.035,3.241.035,3.241,1.248,0,1.892-2.249,1.963-2.646,1.963-.661,0-3.438-.285-4-.249Z"/><path class="a" d="M1836.18,5659.216a22.578,22.578,0,0,0-3.009.214c-.4.036-2.215.5-2.579.5-.43,0-.793-.535-.793-1.07a3.848,3.848,0,0,1,1.554-2.606,1.671,1.671,0,0,1,1.157-.25l2.976.072c.364,0,.4-.036.5-.179-.231-2-.265-2.213-.463-2.463-.661-.749-.727-.82-.727-1.142a3.466,3.466,0,0,1,2.645-2.641c1.818,0,1.653,1.749,1.62,2.178l-.364,4.033a6.747,6.747,0,0,0,1.521.106c.067,0,1.058-.142,1.257-.142,1.124,0,2.91,1.606,2.91,2.569,0,.715-.562.715-.992.715a1.55,1.55,0,0,0-1.158.57l-2.777,2.963c-.2.214-.4.393-.4.57,0,.393,2.976,1.892,3.439,2.356a1.187,1.187,0,0,1,.463,1,1.412,1.412,0,0,1-1.323,1.391,4.1,4.1,0,0,1-1.752-.749,8.377,8.377,0,0,0-1.72-.963c-.231,0-.3,1.5-.3,1.6l-.066,4.39v3.855c0,2.248-.43,2.926-1.356,2.926-1.587,0-2.249-3.212-2.249-3.747,0-.571.034-.643.695-2.106a7.883,7.883,0,0,0,.363-2.819,8.649,8.649,0,0,0-.264-2.678h-.1c-.43.394-2.216,2.143-2.612,2.428a3.326,3.326,0,0,1-1.422.606c-1.091,0-2.48-1.962-2.48-2.711a1.207,1.207,0,0,1,.5-1.036c.165-.072.859-.107.992-.178,2.182-1.142,4-1.857,5.522-3.57.1-.071,3.472-3.462,3.472-3.925,0-.072-.067-.108-.133-.108Zm11.64,11.814-.1-7.781a1.505,1.505,0,0,0-.066-.536l-2.81.286c-.3.037-1.554.429-1.819.429-.5,0-.827-.465-.827-1.071,0-1.214,1.025-2.748,2.15-2.748l3.207-.036.265-.035.033-.143-.067-3.141c-.033-.25-.1-1.642-.495-1.963-.794-.642-.893-.714-.893-1.321a3.255,3.255,0,0,1,2.909-2.854,1.664,1.664,0,0,1,1.588,1.284l-.4,7.245c-.033.465-.066.857.264.857l3.208-.143c1.223-.071,2.546.179,2.546,1.641,0,1.036-.86,1.749-2.182,1.749h-3.7l-.132.464-.066,5.319c0,.427-.133,2.213-.133,2.569,0,.535,0,.535.662.607l2.943.357,2.281.214c.43.036.926.071,1.356.071.165,0,.959-.071.992-.071a.538.538,0,0,1,.562.536,9.389,9.389,0,0,1-1.157,2.283,2.369,2.369,0,0,1-2.083,1.035,3.686,3.686,0,0,1-1.323-.285c-.033-.036-.265-.142-.3-.179l-2.612-.535a20.343,20.343,0,0,0-3.571-.428,23.466,23.466,0,0,0-6.183,1.035,17.848,17.848,0,0,1-2.183.785c-.463,0-1.19-.785-1.19-1.642a4.308,4.308,0,0,1,1.356-2.355,7.257,7.257,0,0,1,1.322-.607c.232,0,1.224.214,1.422.214.265,0,1.951-.286,2.91-.464.066,0,1.885-.107,2.248-.142Z"/><path class="a" d="M1881.22,5655.4a9.487,9.487,0,0,0-.066.964.424.424,0,0,0,.1.286c.4.035,2.083,0,2.414.035a1.284,1.284,0,0,1,1.157,1.214c0,1.106-.992,1.32-2.711,1.677.1.75,2.315,3.284,2.315,3.962,0,.321-.43,1.142-1.059,1.142a1.568,1.568,0,0,1-1.124-.821c-.694-.964-.794-1.07-1.091-1.249l-.033.642-.066,4.211.033,5.176c0,.357.1,2,.1,2.32,0,.392,0,3.5-1.819,3.5-1.355,0-1.752-3.07-1.752-3.534,0-.286.5-1.606.529-1.891l.4-3.248.033-.679.165-3.141c-.2-.071-.231-.035-.43.429l-1.091,2.677a15.738,15.738,0,0,1-1.885,3.176,1.761,1.761,0,0,1-1.455.572c-1.157,0-1.554-2.642-1.554-3.248,0-.928.331-1.071.794-1.285,2.182-.928,4.629-6.354,4.629-8.209,0-.143-.132-.178-.231-.178-.265,0-1.389.249-1.62.285-.265.035-1.389.357-1.621.357a1.192,1.192,0,0,1-1.256-1.142,2.583,2.583,0,0,1,2.149-2.57,31.029,31.029,0,0,0,3.571-.25,18.087,18.087,0,0,0-.4-3.355,8.4,8.4,0,0,1-.463-1.141,3.039,3.039,0,0,1,2.679-2.571c.892,0,1.091,1.821,1.025,2.534Zm9.887,2.57h3.637c1.62,0,2.281.035,3.34.928a3.166,3.166,0,0,1,1.289,2,1.6,1.6,0,0,1-1.355,1.356l-.563,1.035-1.752,3.783-.529,1.179a3.755,3.755,0,0,0,1.124,1.284l2.348,1.963.529.356,2.844,1.571c.33.179.826.5.826.786,0,.071-1.819,2.961-3.6,2.961a4.4,4.4,0,0,1-2.447-1.462l-1.653-1.607c-.166-.179-1.62-2-1.918-2.391-.264.286-.992,1.677-1.191,1.927l-1.223,1.713c-.529.75-2.579,2.642-3.439,2.642a2.894,2.894,0,0,1-2.116-.5c-.165-.107-.826-.572-.959-.679-.5-.428-.893-.785-.893-1.178a.909.909,0,0,1,.265-.5l2.282-1a14.07,14.07,0,0,0,5.885-4.889,13.393,13.393,0,0,1-.793-1.536l-1.059-2.534-.6-1.534c-.1.214-.661,1.963-.992,2.927-.661,2-3.538,5.674-4.5,5.674a2.94,2.94,0,0,1-1.785-2.356c0-.641.132-.749,1.422-1.963a21.041,21.041,0,0,0,3.141-4.675,15.363,15.363,0,0,0,1.719-6.531c0-.428-.033-1.321-.5-1.321-.3,0-1.686.393-1.984.393a1.353,1.353,0,0,1-1.322-1.463,2.466,2.466,0,0,1,1.322-2.356,15.908,15.908,0,0,1,1.786-.179l3.207-.106,4.1.035,2.744.143,2.943.142c.1,0,.661.144.793.179.166.144.166.5.166.606,0,1.322-.4,1.572-.992,1.964-.992.678-1.025.678-1.753.678a8.165,8.165,0,0,1-1.157-.071,6.124,6.124,0,0,0-.694-.143l-3.175-.428a9.9,9.9,0,0,0-2.48.213,14.73,14.73,0,0,0-.463,2.927Zm2.744,8.031,1.224-2.642c.033-.071.76-2.106.76-2.248a1.713,1.713,0,0,0-.1-.393l-1.587-.071-3.34.25a13.635,13.635,0,0,0,2.811,5.5Z"/><path class="a" d="M1929,5654.541l-3.141-.286-.264-.036-3.836-.178-2.778.107-.495.071-3.638.286c-.264.036-1.422.286-1.653.357-.694.142-.76.179-1.025.429l-.132,3.6v4.141l-.033,1.1-.232,3-.43,3.177-.529,2.892c-.165.855-1.356,4.46-2.48,4.46-1.289,0-1.851-2.177-1.851-3.6,0-.5.1-.678,1.025-2.391.826-1.5,1.091-2.89,1.653-5.6a33.38,33.38,0,0,0,.6-7.709,12.284,12.284,0,0,0-.463-2.784c-.066-.285-.595-1.463-.595-1.713,0-1.678,1.951-2.677,2.017-2.677.43,0,2.348-.179,2.711-.179,4.068-.035,4.5-.035,7.209-.214.6-.035,1.719,0,2.347,0l2.547.072.628.071,2.777.071c.166,0,.959-.106,1.092-.106.495,0,3.339,1.178,3.339,2.926,0,.25-.066.321-.5.964a8.488,8.488,0,0,0-.793,3.1v3.747l.429,4.568.794,3.676.165.608,1.025,2.89a3.6,3.6,0,0,1,.265,1.249c0,1.642-1.753,3.356-2.348,3.356-.893,0-1.521-1.892-1.587-2.213l-.5-3v-.821c0-.108-.132-.678-.132-.821-.033-.215-.066-1.178-.066-1.392l-.529-6.46-.133-3.569.034-1.178-.2-3.747Zm-6.348,2.32c.165-.571.661-1.927,1.323-1.927.925,0,2.744,1.213,2.744,2.106,0,.25-.1.285-.926.642a7.065,7.065,0,0,0-1.951,1.856c0,.178.2.213.265.213a19.663,19.663,0,0,1,3.174.179c.628.071,1.323.143,1.323.857,0,.785-.5,1.285-1.191,1.962-.33.357-1.19.287-1.455.287l-3.6-.179c-.231,0-.33,0-.463.321-.1.357-.3,2-.3,2.106l-.033,3.569.033.071c.33,0,1.752.072,2.05.072a6.751,6.751,0,0,0,.826-.179,17.2,17.2,0,0,1-.231-2.569c0-1.357.694-1.749.992-1.749.5,0,1.786.5,1.786,1.391,0,.214-.43,1-.43,1.178s.132,1.035.132,1.214a1.6,1.6,0,0,0,.033.464l.827,3.212c.066.285-.662,1.106-1.488,1.106a8.322,8.322,0,0,1-1.521-.428,3.949,3.949,0,0,0-1.092-.178c-.4,0-1.884,0-2.149.035l-3.835.286c-.43.036-2.216.714-2.613.714s-.793-.608-.793-1.393a3.943,3.943,0,0,1,.33-1.355,4.423,4.423,0,0,0,.232-1.464,4.556,4.556,0,0,0-.2-1.321c-.563-.5-.6-.535-.6-.927,0-1.5,2.083-2.249,2.216-2.249.363,0,1.355.607,1.355,2.177,0,.286-.165,1.606-.132,1.856l2.249.107.1-.107.033-.643.066-3c0-.035-.132-1.5-.132-1.641-.1-.464-.3-.572-.827-.572a14.112,14.112,0,0,0-3.505.358c-.264.035-1.422.428-1.62.428-.364,0-.761-.536-.761-1.392a4.007,4.007,0,0,1,1.091-2.392,8.615,8.615,0,0,1,1.918-.142c.331,0,1.455,0,1.455-.178,0-.429-1.256-1.143-2.546-1.856-.2-.107-.264-.536-.264-.786,0-1.035,1.388-1.784,2.017-1.784.926,0,1.289.535,2.447,2.463.165.285.661,1.82.76,1.891.132.107.3.107.6.107.628,0,1.091,0,1.455-.035Z"/><path class="a" d="M1952.384,5666.1v-6.816c0-.108-.132-1.178-.165-1.392a5.889,5.889,0,0,0-.2-1.428l-3.34.143c-.595.036-2.546.214-3.108.321-.232.035-1.257.358-1.488.358-.595,0-.86-.822-.86-1.464,0-1.142.959-3.07,2.777-3.07.166,0,1.521.358,1.786.358l3.042-.036,5.125-.143,5.258-.036c.363,0,2.48,0,2.48,1.57,0,.75-.86,2-1.852,1.963l-3.538-.142a10.984,10.984,0,0,0-2.678.107,6.644,6.644,0,0,0-.4,2.391l-.2,10.921c0,.571.231.571.694.571.132,0,.3.036.4.036l2.744.214,2.976.357,3.8.428c.264.036,1.322.143,1.983.143.133,0,.827-.071.993-.071a.436.436,0,0,1,.463.463c0,1.321-2.811,3.534-3.638,3.534-.066,0-1.521-.214-2.149-.357l-2.48-.607-.165-.071-2.745-.464-3.9-.25h-3.7c-.364,0-3.439.607-4.067.714-.165.036-2.149.571-2.248.607-.067.036-.364.178-.43.214l-2.943,1a1.779,1.779,0,0,1-.6.072,1.381,1.381,0,0,1-1.588-1.393c0-1.463,1.588-3.676,3.076-3.676.066,0,.859.072,1.025.072.628,0,7.9-.964,8.894-.964a2.208,2.208,0,0,0,.86-.107Z"/><path class="a" d="M1979.964,5662.713l.067,7.71.165,3c0,.249.1,1.285.1,1.5a4.842,4.842,0,0,1-.727,2.82c-.5.749-.695,1-1.091,1-1.158,0-2.018-2.5-2.018-3.819,0-.072.6-2.641.662-3.14l.3-2.748.2-2.713a16.327,16.327,0,0,0-.43-4,16.963,16.963,0,0,0-1.62,1.892,1.582,1.582,0,0,1-1.224.643c-1.19,0-2.579-1.82-2.579-2.784,0-.679.132-.75,1.224-1.357a13.386,13.386,0,0,0,4.133-3.962c1.785-2.284,1.785-2.926,1.785-3.283,0-.25-.033-.286-.429-.642a1.2,1.2,0,0,1-.364-.964c0-1.284,1.289-1.428,1.653-1.428,1.455,0,2.083,2.106,2.083,2.784,0,1.821-1.521,4.14-1.851,4.676a1.293,1.293,0,0,0-.232,1Zm8.3-7.744.694-.071,3.241-.286,1.852-.071,3.174.214.2.036,2.282.286c.264.035,1.455.106,1.686.142.265.072.529.285.529.535,0,.393-1.488,3.034-2.612,3.034-.033,0-1.29-.178-1.389-.178a11.555,11.555,0,0,0-1.488-.429l-2.38-.071a17.054,17.054,0,0,0-2.348.071c-.265.143-.265,1.464-.265,1.678,0,.142-.033.821-.033.964,0,.177.066.285.166.285l3.736-.179c2.281-.106,3.075-.106,3.075,1,0,.358-.463,2-1.786,2h-.628l-2.248.108a13.547,13.547,0,0,0-1.951.106c-.364.072-.4.215-.4.393,0,.036.1,1.785.1,1.963.331.072,1.786.25,2.083.322l3.009.785,4.1,1.284a.606.606,0,0,1,.43.571c0,.214-.1.25-.761.964-1.686,1.713-1.786,1.749-2.249,1.749a3.959,3.959,0,0,1-2.347-.821c-2.513-1.464-3.7-1.5-3.77-1.5a2.993,2.993,0,0,0-.4.071l.033,4.747a14.153,14.153,0,0,1-.1,2.713c-.2,1-.925,1.748-1.421,1.748-1.621,0-1.984-3.14-1.984-3.712,0-.535.562-3.069.562-3.354l.165-3.641.033-4.247.066-1.106-.066-3.212c0-.393-.066-1.464-.5-1.464a10.137,10.137,0,0,0-1.686.357l-1.389,2.427c-.331.571-1.389,1.892-2.182,1.892-.5,0-2.084-1.071-2.084-3.5,0-.357.1-.428,1.026-1,.562-.357,4.53-4.6,4.331-6.782a4.562,4.562,0,0,0-.3-.713c-.43-.357-.662-.5-.662-.963a1.832,1.832,0,0,1,.066-.465c.43-.57.629-.785,1.191-.785,1.388,0,2.314,1.677,2.314,2.855a13.754,13.754,0,0,1-.793,3.177Z"/><path class="a" d="M2006.453,5672.636a11.279,11.279,0,0,0,1.885-3.712,45.571,45.571,0,0,0,.529-6.388c0-.143-.066-1.357-.33-1.536a1.68,1.68,0,0,1-.926-1.427,3.066,3.066,0,0,1,1.289-2.106,18.085,18.085,0,0,1,3.671-.356c.5,0,2.777.142,3.24.142.43,0,2.645-.142,2.744-.142.563,0,.728.071,1.092.678a3.627,3.627,0,0,1,.562,1.677c0,.464-.166.607-.662,1.107-.529.5-1.058,3.961-1.256,4.6a2.049,2.049,0,0,1-1.587,1.464,1.636,1.636,0,0,1-.529-.143,2.566,2.566,0,0,0-1.224-.286c-1.884,0-3.934,0-4.034,1.463-.364,5.069-.826,6.319-2.116,8.994-.264.537-1.025,1.393-1.653,1.393-.959,0-2.05-1.535-2.05-3.034C2005.1,5674.17,2005.23,5674.028,2006.453,5672.636Zm5.622-18.273a11.755,11.755,0,0,0-2.017.249c-.2.072-1.621.357-1.687.357-.992,0-1.422-.25-1.422-1,0-.928.794-2.962,2.414-2.962.331,0,1.786.036,2.083,0,.463,0,2.513-.071,2.943-.071.5,0,2.811.071,3.274.036,1.587.393,1.851.464,1.851,1.284,0,.393-.066.5-.859,1.5-.166.214-.265.214-1.191.286Zm3.207,8.565c1.389-.071,1.389-.179,1.389-.856v-1.464c.033-.357.033-.5-.893-.535l-2.745-.108a6.248,6.248,0,0,0-1.223.215c-.4.071-.6.143-.6.57,0,.179.1,1,.1,1.178a9.372,9.372,0,0,0,0,.964c.1.25.265.214,1.753.144Zm7.9-6.816.165,3.247-.033.392c.4.072.463.037,1.091-.142a5.434,5.434,0,0,1,.7-.143l2.81-.071h.992l2.877.321c.264,0,1.323-.036,1.521-.036.264.036,1.389-.071,1.62-.071.265,0,.4.214.4.5a6.375,6.375,0,0,1-1.157,2.534c-.463.5-.529.535-1.422.463l-2.348-.143c-.132,0-.893-.142-1.058-.142-.463,0-.595.107-.595.428,0,.357.3,1.963.3,2.285a1.709,1.709,0,0,0,.067.5l.595,2.39a27.808,27.808,0,0,0,1.322,3.819l1.29,2.391a1.748,1.748,0,0,1,.165.893,2.8,2.8,0,0,1-2.513,2.784c-.628,0-.959-.679-1.356-1.82a31.067,31.067,0,0,1-.859-3.462l-.43-2.427-.694-4.069-.463-3.57c-.034-.177-.066-.32-.232-.32a7.891,7.891,0,0,0-2.844.642l-.132,1.5-.5,2.963-.132.749-.86,2.676c-1.62,5-3.934,6-4.563,6a3.19,3.19,0,0,1-2.348-2.462c0-.393.133-.5.728-1.106a17.93,17.93,0,0,0,4.4-5.961,22.787,22.787,0,0,0,1.422-8.137,16.032,16.032,0,0,0-.331-2.962c-.728-.821-.827-.928-.827-1.357a3.149,3.149,0,0,1,2.315-2.712c.2,0,.959.5,1.157.5.3,0,3.141-1.106,3.307-1.178a15.454,15.454,0,0,1,3.141-1.462c1.62,0,3.406,1.284,3.406,2,0,.392-.265.5-.662.677a33.225,33.225,0,0,1-7.406,2.071c-.3.071-1.72.25-1.984.356Z"/></g><g transform="translate(-1670.816 -5610.326)"><path class="a" d="M1798.888,5689.511h1.391v8.84h-1.391Z"/><path class="a" d="M1805.595,5690.687H1803v-1.176h6.584v1.176h-2.6v7.664h-1.391Z"/><path class="a" d="M1813.539,5689.511h1.607l2.926,8.84H1816.6l-.743-2.518h-3.071l-.756,2.518h-1.415Zm-.432,5.23h2.411l-.348-1.188c-.3-.959-.564-1.942-.828-2.938h-.06c-.252,1.008-.528,1.979-.815,2.938Z"/><path class="a" d="M1819.828,5693.9c0-2.842,1.571-4.545,3.838-4.545s3.85,1.7,3.85,4.545-1.583,4.6-3.85,4.6S1819.828,5696.744,1819.828,5693.9Zm6.261,0c0-2.074-.96-3.334-2.423-3.334s-2.411,1.26-2.411,3.334.948,3.394,2.411,3.394S1826.089,5695.964,1826.089,5693.9Z"/><path class="a" d="M1830.556,5689.511h1.391v4.187h.036l3.358-4.187h1.548l-2.735,3.419,3.19,5.421H1835.8l-2.495-4.33-1.355,1.667v2.663h-1.391Z"/><path class="a" d="M1841.343,5689.511h1.607l2.926,8.84H1844.4l-.743-2.518h-3.071l-.755,2.518h-1.415Zm-.432,5.23h2.411l-.348-1.188c-.3-.959-.564-1.942-.827-2.938h-.061c-.252,1.008-.527,1.979-.815,2.938Z"/><path class="a" d="M1852.144,5689.511h1.595l1.619,4.474c.2.588.384,1.187.588,1.775h.06c.2-.588.371-1.187.576-1.775l1.594-4.474h1.608v8.84h-1.3v-4.366c0-.791.108-1.931.18-2.735h-.048l-.707,2.04-1.536,4.209h-.863l-1.547-4.209-.7-2.04h-.048c.06.8.168,1.944.168,2.735v4.366h-1.247Z"/><path class="a" d="M1865.066,5689.511h1.608l2.926,8.84h-1.475l-.744-2.518h-3.07l-.756,2.518h-1.415Zm-.431,5.23h2.41l-.347-1.188c-.3-.959-.564-1.942-.828-2.938h-.06c-.252,1.008-.528,1.979-.815,2.938Z"/><path class="a" d="M1871.968,5689.511h1.427l2.926,5.194.924,1.871h.06c-.072-.911-.18-1.979-.18-2.939v-4.126h1.319v8.84h-1.427l-2.927-5.205-.923-1.848h-.06c.072.912.18,1.932.18,2.891v4.162h-1.319Z"/><path class="a" d="M1881.927,5694.561v-5.05h1.392v5.146c0,1.991.791,2.638,1.894,2.638s1.932-.647,1.932-2.638v-5.146h1.343v5.05c0,2.878-1.32,3.945-3.275,3.945S1881.927,5697.439,1881.927,5694.561Z"/><path class="a" d="M1891.971,5689.511h5.23v1.176h-3.838v2.7h3.262v1.164h-3.262v3.8h-1.392Z"/><path class="a" d="M1901.21,5689.511h1.607l2.927,8.84h-1.476l-.743-2.518h-3.07l-.756,2.518h-1.415Zm-.432,5.23h2.411l-.348-1.188c-.3-.959-.563-1.942-.828-2.938h-.059c-.252,1.008-.528,1.979-.816,2.938Z"/><path class="a" d="M1907.5,5693.961c0-2.878,1.751-4.6,3.981-4.6a3.4,3.4,0,0,1,2.507,1.115l-.756.888a2.346,2.346,0,0,0-1.727-.792c-1.523,0-2.579,1.271-2.579,3.347,0,2.1.985,3.381,2.543,3.381a2.55,2.55,0,0,0,1.955-.935l.743.876a3.484,3.484,0,0,1-2.746,1.27C1909.2,5698.506,1907.5,5696.852,1907.5,5693.961Z"/><path class="a" d="M1918.514,5690.687h-2.59v-1.176h6.584v1.176h-2.6v7.664h-1.392Z"/><path class="a" d="M1925.187,5694.561v-5.05h1.392v5.146c0,1.991.791,2.638,1.894,2.638s1.932-.647,1.932-2.638v-5.146h1.343v5.05c0,2.878-1.32,3.945-3.275,3.945S1925.187,5697.439,1925.187,5694.561Z"/><path class="a" d="M1935.231,5689.511h2.891c1.823,0,3.19.66,3.19,2.568a2.456,2.456,0,0,1-1.847,2.53l2.159,3.742h-1.572l-2-3.562h-1.426v3.562h-1.392Zm2.723,4.162c1.283,0,1.979-.527,1.979-1.594s-.7-1.44-1.979-1.44h-1.331v3.034Z"/><path class="a" d="M1944.3,5689.511h1.392v8.84H1944.3Z"/><path class="a" d="M1949.21,5689.511h1.428l2.926,5.194.924,1.871h.059c-.071-.911-.179-1.979-.179-2.939v-4.126h1.319v8.84h-1.427l-2.926-5.205-.924-1.848h-.06c.072.912.18,1.932.18,2.891v4.162h-1.32Z"/><path class="a" d="M1958.739,5693.961c0-2.878,1.775-4.6,4.113-4.6a3.524,3.524,0,0,1,2.627,1.115l-.743.888a2.436,2.436,0,0,0-1.835-.792c-1.644,0-2.734,1.271-2.734,3.347,0,2.1.97,3.381,2.793,3.381a2.192,2.192,0,0,0,1.392-.431v-2.075H1962.6v-1.139h3.01v3.825a3.964,3.964,0,0,1-2.794,1.031C1960.466,5698.506,1958.739,5696.852,1958.739,5693.961Z"/></g></g></svg>