<svg xmlns="http://www.w3.org/2000/svg" width="39.777" height="39.777" viewBox="0 0 39.777 39.777"><defs><style>.a{fill:#fff;}</style></defs><g transform="translate(-2936.674 -4896.102)"><path class="a" d="M19.634-.254a19.893,19.893,0,0,1,7.742,38.214A19.893,19.893,0,0,1,11.893,1.309,19.764,19.764,0,0,1,19.634-.254Zm0,39.268A19.38,19.38,0,1,0,.254,19.634,19.4,19.4,0,0,0,19.634,39.014Z" transform="translate(2936.928 4896.356)"/><path class="a" d="M2961.724,4917.25a.6.6,0,0,1-.457-.21l-4.705-5.5-4.705,5.5a.6.6,0,1,1-.913-.78l5.162-6.039a.6.6,0,0,1,.913,0l5.162,6.039a.6.6,0,0,1-.456.991Z"/><path class="a" d="M2956.562,4921.971a.6.6,0,0,1-.6-.6v-10.292a.6.6,0,0,1,1.2,0v10.292A.6.6,0,0,1,2956.562,4921.971Z"/></g></svg>